<svg version="1.0" xmlns="http://www.w3.org/2000/svg" width="1254px" height="1254px" viewBox="468 439 320 356" preserveAspectRatio="xMidYMid meet"> <g fill="#F2E6D8"> <path d="M475.39 788.40 c-2.57 -3.31 -2.82 -9.92 -0.98 -27.55 2.94 -26.94 17.51 -176.22 19.10 -193.24 0.73 -8.08 1.59 -16.41 1.96 -18.61 1.22 -7.72 1.22 -7.72 34.29 -7.72 l29.88 0 0 -6.98 c0 -9.80 3.06 -28.66 6.12 -38.94 11.27 -36.37 38.70 -55.84 71.88 -50.94 25.10 3.80 44.82 24.61 52.90 55.84 1.47 5.39 3.18 16.78 4.04 25.35 l1.47 15.68 31.47 0 c26.33 0 31.72 0.24 32.94 1.84 1.59 1.96 1.96 5.14 6.74 55.72 4.29 46.17 8.69 92.70 12.37 129.20 4.53 44.94 5.02 57.19 2.45 59.76 -1.96 1.96 -12.61 2.08 -153.69 2.08 -119.89 0 -151.97 -0.37 -152.95 -1.47z m288.76 -16.41 c0 -0.73 -6.86 -26.45 -23.39 -87.93 -6.74 -24.86 -14.33 -53.88 -17.02 -64.54 -2.69 -10.53 -5.39 -20.70 -6.12 -22.41 l-1.22 -3.18 -87.44 0 -87.56 0 -2.45 8.33 c-3.92 13.35 -39.92 145.12 -44.58 163.49 l-1.84 6.98 135.81 0 c74.70 0 135.81 -0.37 135.81 -0.73z m-12.74 -146.34 c-1.71 -17.14 -3.43 -36 -3.92 -42 l-0.86 -11.02 -2.94 3.67 c-1.59 1.96 -4.29 5.27 -5.88 7.23 l-2.94 3.80 6.49 24.37 c3.55 13.47 7.84 29.64 9.43 35.88 1.59 6.25 3.06 10.90 3.31 10.29 0.12 -0.61 -1.10 -15.06 -2.69 -32.21z m-232.55 -23.27 l4.90 -16.65 -5.88 -6.98 c-5.39 -6.37 -6 -6.74 -6.49 -4.16 -0.37 1.59 -2.08 18.86 -3.80 38.33 -1.71 19.59 -3.43 37.72 -3.80 40.41 -0.24 2.69 1.84 -3.92 4.90 -14.70 2.94 -10.78 7.59 -27.06 10.16 -36.25z m40.78 -34.78 l0 -9.18 -16.04 0 -15.92 0 7.59 9.18 7.59 9.18 8.33 0 8.45 0 0 -9.18z m117.56 0 l0 -9.18 -49.60 0 -49.60 0 0 9.18 0 9.18 49.60 0 49.60 0 0 -9.18z m46.54 0.61 c4.04 -4.78 7.35 -8.94 7.35 -9.18 0 -0.37 -7.96 -0.61 -17.76 -0.61 l-17.76 0 0 9.18 0 9.18 10.41 0 10.29 0 7.47 -8.57z m-47.64 -27.55 c1.35 -1.22 -1.59 -22.04 -4.53 -31.96 -6.49 -22.41 -18.25 -37.72 -33.19 -43.35 -8.82 -3.31 -15.06 -2.69 -25.72 2.45 -13.59 6.74 -24.12 21.55 -29.76 42 -2.45 8.82 -5.02 28.78 -4.04 30.62 0.49 0.86 96.25 1.22 97.23 0.24z"/> </g> </svg>