<svg version="1.0" xmlns="http://www.w3.org/2000/svg" width="1254px" height="1254px" viewBox="430 430 410 400" preserveAspectRatio="xMidYMid meet"> <g fill="#F2E6D8"> <path d="M475.2 786.8 c-1.8 -1.8 -1.5 -10.6 1.2 -37.3 1.4 -13.2 3.4 -33.7 4.6 -45.5 2.4 -24.6 13.7 -136.7 14.4 -142.1 0.3 -3.3 0.1 -3.8 -2.7 -5 -5.4 -2.4 -7.7 -7.1 -7.7 -15.7 0 -14.1 5.9 -20.9 18.7 -22 6.1 -0.4 7.3 -0.9 11.1 -4.2 6.2 -5.5 10.7 -7.4 18.9 -7.8 9.4 -0.5 12.8 0.7 20.9 7.9 7.9 6.9 7.2 7.4 9.4 -6.4 4.5 -29.5 21.7 -53.2 44 -60.8 8.9 -3 24.1 -3.7 33.3 -1.5 23.1 5.4 40.3 25.2 47.6 54.8 2.2 9 4.1 23.3 4.1 31.2 0 3.9 0.6 5.5 2.9 8.1 l2.8 3.2 2 -4.7 c3.7 -8.6 3.5 -8.6 32.8 -6.2 13.9 1.2 26.5 2.7 28 3.4 3.9 1.7 5.5 5.7 5.5 13.4 0 5 -0.5 7.6 -2.2 10.5 l-2.1 3.9 4.2 44.7 c2.3 24.7 5.3 56.5 6.7 70.8 4.8 50.5 6.4 67.2 8.1 85.2 1.3 14.2 1.4 18.8 0.5 20.7 l-1.2 2.6 -152.3 0 c-117.1 0 -152.6 -0.3 -153.5 -1.2z m290.5 -15.2 c-0.3 -0.7 -3.3 -12.1 -6.7 -25.2 -12.9 -49.7 -16 -61.9 -25 -95.9 -5 -19.2 -10.5 -40.3 -12.2 -46.7 l-3.1 -11.8 -89.7 0 -89.7 0 -4.7 17.3 c-2.7 9.4 -7.2 25.8 -10.2 36.2 -8.6 30.7 -33.4 124.8 -33.4 126.8 0 0.4 61.9 0.7 137.6 0.7 115.8 0 137.5 -0.2 137.1 -1.4z m-9.3 -110.7 c-0.8 -8.5 -2.9 -31.2 -4.7 -50.6 l-3.2 -35.1 -7.2 4.6 c-3.9 2.6 -7.2 5.4 -7.2 6.2 -0.1 1.3 7.3 29.9 20.7 80.7 1.5 5.6 2.8 10.1 2.9 9.9 0.2 -0.1 -0.4 -7.2 -1.3 -15.7z m-252.4 -1.9 c1.7 -6.3 4.2 -15.3 5.5 -20 1.3 -4.7 4.2 -15.2 6.5 -23.5 2.3 -8.2 5.3 -18.9 6.6 -23.7 l2.5 -8.6 -6.7 -8.6 c-3.7 -4.7 -7.1 -8.6 -7.6 -8.6 -0.4 0 -0.8 0.8 -0.8 1.9 0 1 -2.2 24.2 -5 51.5 -2.7 27.3 -5 50.4 -4.9 51.4 0.1 2.1 0.1 2.1 3.9 -11.8z m57.4 -84.2 c-0.3 -1.3 -1.6 -3.6 -2.7 -5.3 -4.7 -6.8 -19.6 -25.3 -24.9 -31 -4 -4.2 -5.8 -7 -5.8 -8.8 0 -4.9 0.9 -5.7 6.1 -5.7 4.2 0 5.4 0.5 9 3.7 2.2 2 5.4 5.7 7.1 8.1 1.7 2.4 5 6.6 7.4 9.3 l4.4 5 0 -5.4 c0 -4.6 -0.3 -5.6 -2.7 -7.4 -1.6 -1.1 -6.3 -5.2 -10.5 -9 -4.2 -3.9 -9.1 -7.6 -10.8 -8.3 -2.7 -1.1 -3.5 -1 -7.8 1.2 l-4.7 2.5 0.3 4.7 c0.2 2.7 -0.1 5.3 -0.8 6.1 -1.7 2.1 -7.4 1.8 -12 -0.5 -5.2 -2.7 -8.2 -2.5 -11.9 0.6 -4.1 3.4 -3.9 4.4 0.8 4.4 8.5 0 11.5 2.4 26.1 20.9 l13.5 17.1 10.3 0 c10.3 0 10.3 0 9.6 -2.2z m25.2 -1 c-0.7 -1.8 -3.2 -6.4 -5.5 -10.3 l-4.1 -7 0 10.3 0 10.2 5.5 0 5.5 0 -1.4 -3.2z m91.2 -12.5 l-0.3 -15.7 -7.5 -2.8 c-9.2 -3.4 -9.6 -3.4 -10.4 -0.2 -0.9 3.5 -9.1 12.1 -14.1 14.7 -6.1 3.2 -21.1 3.6 -28.6 0.8 -6.4 -2.5 -12.9 -8.4 -16 -14.7 l-2 -4.2 -6.4 2.1 c-3.6 1.2 -6.5 2.5 -6.5 3 0 0.4 1.3 2.7 2.8 5 4.8 7 8.9 14.9 11.2 21.5 l2.3 6.2 37.9 0 37.9 0 -0.3 -15.7z m33.1 11 c8.4 -6 20.1 -15.2 26.9 -21.3 l5.3 -4.7 -3.8 -0.6 c-2.1 -0.3 -8.8 -0.9 -14.9 -1.3 l-11 -0.7 -2.8 6.4 c-1.6 3.5 -4.8 10.8 -7.2 16.1 -2.4 5.4 -4.4 10 -4.4 10.3 0 0.3 1.2 0.5 2.6 0.5 1.5 0 5.4 -2 9.3 -4.7z m-74.4 -26.4 c2.5 -1.2 4.7 -2.4 4.9 -2.8 0.4 -0.5 -9.8 -0.4 -18.4 0.2 l-3.5 0.3 4.5 2.2 c5.6 2.7 6.9 2.7 12.5 0.1z m-46.6 -17.9 c12.6 -4.6 16.8 -4.9 23.4 -1.6 11 5.6 22.4 5.6 34 0.1 7.2 -3.3 12.2 -3.1 22.2 1.2 3.9 1.7 7.2 2.9 7.4 2.7 0.2 -0.2 -0.2 -4.5 -0.9 -9.6 -1.5 -11.3 -6.4 -26.6 -11.1 -34.4 -5.2 -8.8 -14.3 -17.5 -22.4 -21.5 -6.2 -3 -7.9 -3.4 -15 -3.4 -6.9 0 -8.9 0.4 -14.5 3.1 -12.4 5.9 -23 18.1 -28.9 33.2 -4 10.4 -8.2 34.2 -6 34.2 0.5 0 5.8 -1.8 11.8 -4z"/> </g> </svg>