<svg version="1.0" xmlns="http://www.w3.org/2000/svg" width="1254px" height="1254px" viewBox="369 419 500 465" preserveAspectRatio="xMidYMid meet"> <g fill="#F2E6D8"> <path d="M599.2 877.9 c-3.9 -1.5 -5.4 -3 -37.3 -36.4 -16.8 -17.6 -60.7 -63.4 -97.5 -101.8 -36.8 -38.4 -71.3 -74.6 -76.6 -80.3 -14.8 -16 -13.8 -10.4 -13.8 -76.8 0 -62.9 -0.3 -60.3 8.3 -70.4 6.8 -8 77.5 -82.3 80.1 -84.1 4.7 -3.4 11.1 -4.1 30.9 -3.1 10.6 0.5 30.5 1.4 44.2 2.1 21.2 0.9 25.7 1.4 29.7 3.1 3.8 1.6 10.7 8.1 34.1 31.8 l29.4 29.8 30.4 -30.4 c27.8 -27.8 30.8 -30.6 35.4 -31.9 3.1 -1 17.5 -2.2 38.5 -3.5 39.9 -2.4 55.8 -2.5 60.3 -0.6 2.1 0.8 10.8 9.4 22.8 22.2 10.7 11.4 25.4 27.1 32.7 34.9 l13.2 14 -0.2 64 -0.3 64 -2.9 5.9 c-2.1 4.4 -7 10.1 -18.5 22 -22.3 23 -87.3 91.3 -173.9 182.9 -23.3 24.6 -27.8 28.7 -31.9 28.7 -1 0 -4.5 2.7 -7.8 6.1 -3.3 3.4 -7.4 6.7 -9.2 7.5 -3.6 1.6 -16.5 1.8 -20.1 0.3z m18.2 -11.8 l2.6 -2.8 -3.5 -2.5 c-2 -1.4 -13.1 -12.6 -24.8 -25 -34.1 -36.1 -82.4 -87.4 -107.2 -113.7 -12.7 -13.5 -35.9 -38.2 -51.7 -54.9 -21.7 -22.9 -29.4 -31.8 -31.5 -36.1 l-2.8 -5.6 -0.5 -57.4 -0.5 -57.5 -5.3 5.9 c-10.3 11.6 -9.7 7.6 -9.7 66.1 l0 51 3 5.7 c2.2 4.1 10.8 13.8 31 34.8 15.4 16 34.3 35.7 41.9 43.8 7.7 8 23.7 24.7 35.6 37.1 11.9 12.4 31.2 32.6 43 45 52.9 55.6 66 68.7 69.2 69.7 4.1 1.2 7.7 0.1 11.2 -3.6z m127.8 -165.3 c8.6 -10.6 23.5 -29.2 33.3 -41.3 9.8 -12.1 18.9 -23.4 20.3 -25.2 1.8 -2.1 7 -16.3 16.3 -44 7.5 -22.4 13.6 -40.9 13.4 -41.1 -0.3 -0.3 -15.3 18.3 -40.8 50.5 l-9.6 12.2 -8.4 30.8 -8.3 30.8 -9.5 13.5 c-14.4 20.5 -22.9 33 -22.5 33 0.2 0 7.3 -8.7 15.8 -19.2z m-263.8 -166.1 l9.2 -32.5 -11.7 -21.7 c-6.5 -12 -12.2 -22.2 -12.6 -22.6 -0.7 -0.7 -12.8 13.1 -31.6 36.3 l-4.8 5.9 17.8 29.2 c9.7 16.1 19.1 31.5 20.7 34.3 1.7 2.8 3.2 4.8 3.4 4.4 0.2 -0.4 4.5 -15.4 9.6 -33.3z"/> </g> </svg>