<svg version="1.0" xmlns="http://www.w3.org/2000/svg" viewBox="360 410 518 483" preserveAspectRatio="xMidYMid meet"><path d="M599.2 877.9 c-3.9 -1.5 -5.4 -3 -37.3 -36.4 -16.8 -17.6 -60.7 -63.4 -97.5 -101.8 -36.8 -38.4 -71.3 -74.6 -76.6 -80.3 -14.8 -16 -13.8 -10.4 -13.8 -76.8 0 -62.9 -0.3 -60.3 8.3 -70.4 6.8 -8 77.5 -82.3 80.1 -84.1 4.7 -3.4 11.1 -4.1 30.9 -3.1 10.6 0.5 30.5 1.4 44.2 2.1 21.2 0.9 25.7 1.4 29.7 3.1 3.8 1.6 10.7 8.1 34.1 31.8 l29.4 29.8 30.4 -30.4 c27.8 -27.8 30.8 -30.6 35.4 -31.9 3.1 -1 17.5 -2.2 38.5 -3.5 39.9 -2.4 55.8 -2.5 60.3 -0.6 2.1 0.8 10.8 9.4 22.8 22.2 10.7 11.4 25.4 27.1 32.7 34.9 l13.2 14 -0.2 64 -0.3 64 -2.9 5.9 c-2.1 4.4 -7 10.1 -18.5 22 -22.3 23 -87.3 91.3 -173.9 182.9 -23.3 24.6 -27.8 28.7 -31.9 28.7 -1 0 -4.5 2.7 -7.8 6.1 -3.3 3.4 -7.4 6.7 -9.2 7.5 -3.6 1.6 -16.5 1.8 -20.1 0.3z" fill="none" stroke="#F2E6D8" stroke-width="22" stroke-linejoin="round" stroke-linecap="round"/></svg>
