<svg version="1.1" id="Layer_1" xmlns="http://www.w3.org/2000/svg" xmlns:xlink="http://www.w3.org/1999/xlink" x="0px" y="0px" width="100%" viewBox="76 95 614 575" enable-background="new 0 0 752 752" xml:space="preserve"> <path fill="#F2E6D8" opacity="1.000000" stroke="none" d=" M91.901031,377.016907 C84.320633,367.955475 80.910027,357.447235 80.805656,346.380798 C80.430077,306.559540 80.487183,266.731201 80.793640,226.908691 C80.873772,216.497070 85.087357,207.226883 92.385651,199.568756 C105.912079,185.375443 119.745766,171.459747 132.883408,156.915298 C146.483612,141.858765 160.689499,127.417885 174.951035,113.010468 C185.255722,102.600372 197.570740,98.508980 212.013367,100.556618 C212.996521,100.696014 214.011520,100.678848 215.008438,100.643150 C235.806427,99.898277 256.528290,101.725800 277.252045,102.860245 C285.281464,103.299797 293.413971,103.634361 301.408417,105.434135 C315.132477,108.523811 325.231689,116.857414 333.888214,127.183426 C337.724609,131.759720 341.842712,136.090286 345.820282,140.497635 C357.151184,153.052765 368.254425,165.813202 379.665527,178.284439 C384.528046,183.598694 389.385315,188.880249 393.851837,194.523590 C395.721069,196.885345 397.252106,195.798386 398.730713,194.134827 C404.006836,188.198669 409.276581,182.256714 414.526581,176.297440 C421.423859,168.468445 428.179321,160.510635 435.212738,152.806320 C446.855743,140.052582 458.265991,127.074730 470.807861,115.165764 C478.106812,108.235130 487.110596,104.974937 496.765930,103.747192 C510.604309,101.987549 524.590698,102.147270 538.498718,101.391006 C555.939148,100.442673 573.343933,100.750046 590.759766,100.760635 C598.960876,100.765625 606.530701,103.940063 612.445129,109.552017 C627.145142,123.500130 640.461365,138.790192 654.066162,153.790405 C660.966797,161.398865 668.700684,168.325577 674.212280,177.094528 C679.970947,186.256424 682.517761,196.376785 683.504150,207.190430 C684.551453,218.670776 684.852844,230.167603 684.149292,241.567810 C683.256409,256.036041 685.253540,270.436737 684.255798,284.828613 C683.415833,296.944641 684.803772,309.006195 684.344666,321.092834 C683.750183,336.741302 681.202637,351.906677 671.215027,364.589386 C664.653198,372.921753 657.493164,380.804291 650.314270,388.625061 C633.244873,407.220856 615.867676,425.535522 598.890930,444.214630 C590.173401,453.806366 581.189636,463.140625 572.420410,472.675812 C554.651672,491.996582 537.060242,511.473999 518.799133,530.343445 C506.106323,543.459045 493.984253,557.125427 481.521149,570.465393 C465.982056,587.097778 450.089508,603.409485 434.885681,620.341064 C428.088562,627.910645 420.722443,634.867737 413.765015,642.246521 C412.871124,643.194519 411.777954,644.097595 410.598358,644.610168 C402.040619,648.328735 395.619019,654.751831 389.011932,661.053772 C382.794220,666.984314 369.562195,666.355286 361.147308,660.251648 C356.662872,656.998901 353.185303,652.791443 349.472931,648.742065 C340.818054,639.301453 331.935822,630.058899 322.902771,620.977722 C308.003052,605.998718 294.090332,590.094055 279.245972,575.051331 C266.878021,562.518188 254.945114,549.531189 242.849167,536.719055 C222.534866,515.201721 202.253891,493.659546 181.550720,472.512207 C167.825043,458.492035 154.381134,444.194244 140.905884,429.931213 C125.269691,413.380920 109.732330,396.737213 94.174217,380.113342 C93.387650,379.272888 92.810799,378.236206 91.901031,377.016907 M279.204956,399.402863 C290.004150,422.054718 300.811066,444.702911 311.600739,467.359283 C327.665619,501.092560 343.572906,534.901855 359.827515,568.543396 C370.601379,590.841553 381.601135,613.028748 391.780212,635.609741 C392.659058,637.559326 393.512054,639.485657 396.277405,639.669617 C399.243164,639.866882 400.456512,638.104736 401.504181,635.925171 C409.483215,619.325684 417.514465,602.750854 425.403137,586.108521 C435.931213,563.898010 446.273773,541.599365 456.828949,519.401855 C467.017151,497.976135 477.412750,476.649109 487.647186,455.245209 C499.260040,430.958557 510.718933,406.597992 522.389709,382.339294 C530.658020,365.152954 539.107300,348.052643 547.621338,330.986542 C549.236267,327.749359 549.016052,325.676666 545.959290,323.418976 C536.357178,316.326904 526.963257,308.953461 517.463440,301.722107 C491.074860,281.634888 464.663422,261.577728 438.281647,241.481598 C425.618988,231.835953 412.965240,222.177689 400.394226,212.413406 C397.535980,210.193298 395.253448,210.317520 392.438690,212.512512 C370.083618,229.945374 347.699829,247.342087 325.233551,264.631317 C300.006531,284.045105 274.774475,303.455353 249.308609,322.552460 C245.369232,325.506592 245.338409,328.062531 247.311722,331.593567 C251.119339,338.407013 254.493378,345.508270 257.552673,352.601898 C264.268066,368.172852 272.803009,382.885437 279.204956,399.402863 M256.333893,110.372078 C244.525299,110.685989 232.789185,108.597130 220.964554,109.313423 C218.976669,109.433838 216.931076,109.482971 214.978409,109.161980 C201.197327,106.896530 189.244232,110.736824 179.571243,120.573250 C165.601334,134.779190 151.977173,149.327637 138.323975,163.841400 C131.747238,170.832687 124.940674,177.683945 121.100716,186.781296 C119.972633,189.453903 119.649162,191.485123 121.972176,193.904419 C129.573776,201.821136 137.633484,209.263138 144.900024,217.549728 C153.315231,227.146255 161.986374,236.592041 170.979904,245.636856 C184.345886,259.079071 196.477692,273.659882 210.018753,286.917511 C212.625854,289.470062 215.032196,292.231506 217.475922,294.946320 C224.143188,302.353149 231.701447,308.920502 237.936264,316.739288 C239.154160,318.266602 240.552292,319.004395 242.602432,317.416931 C256.743591,306.467133 270.999237,295.665375 285.163330,284.745026 C306.947113,267.950073 328.684265,251.094666 350.446533,234.271805 C362.247833,225.149078 374.052673,216.030884 385.873016,206.932861 C388.660156,204.787628 390.464355,202.739929 387.316254,199.291138 C374.894226,185.682526 362.594177,171.962494 350.258118,158.275467 C341.478027,148.533844 332.673615,138.813705 323.954041,129.018127 C317.735352,122.032036 310.522736,116.618256 301.260193,114.487839 C286.794556,111.160706 271.900299,112.238968 256.333893,110.372078 M600.232361,269.757568 C610.347168,258.575684 620.413391,247.349335 630.592102,236.225891 C638.878662,227.170242 647.525513,218.433243 655.558899,209.161850 C659.165771,204.999130 663.285034,201.359116 666.762268,197.132004 C668.767334,194.694458 671.835266,192.387695 670.201416,188.451630 C668.741516,184.934769 667.177979,181.519745 664.628601,178.539581 C657.930908,170.710007 650.853638,163.239960 643.873718,155.669449 C632.617371,143.460678 621.902405,130.739624 610.008057,119.136955 C603.459045,112.748466 595.877136,108.871078 586.083618,109.192879 C569.139832,109.749611 552.167603,109.166389 535.220947,110.320137 C526.112915,110.940224 516.928345,110.636978 507.860535,111.558510 C503.605072,111.990974 499.297394,112.226540 495.030762,112.872902 C479.625793,115.206650 470.863556,126.838089 461.301636,137.023560 C447.349274,151.885803 434.014618,167.328674 420.449005,182.552856 C415.261200,188.374908 410.094757,194.219238 405.068817,200.180069 C403.733704,201.763504 402.413513,203.544830 405.146454,205.605804 C419.037720,216.081421 432.769623,226.767960 446.622498,237.294952 C472.626190,257.055573 498.683624,276.745483 524.699341,296.490356 C533.287842,303.008698 541.755554,309.688293 550.424744,316.096283 C552.124207,317.352417 554.018738,320.152313 556.784424,317.199402 C559.743469,314.040070 562.997803,311.153229 565.900635,307.945984 C577.227234,295.431427 588.465820,282.837128 600.232361,269.757568 M348.362213,595.224121 C356.668518,604.997803 365.316925,614.435181 374.873688,623.326233 C376.003418,621.323181 375.044312,620.367615 374.584412,619.380920 C370.812866,611.288757 367.039276,603.196960 363.173645,595.149475 C354.038055,576.130981 344.786652,557.167969 335.700928,538.125793 C323.124847,511.768250 310.684021,485.346191 298.134705,458.975861 C290.354797,442.627716 282.476990,426.326172 274.651672,409.999603 C271.349152,403.109283 268.026581,396.228088 264.786346,389.308472 C256.128571,370.819489 247.486420,352.323090 238.901657,333.800110 C237.568024,330.922607 236.019943,330.065155 232.667480,330.975616 C219.085449,334.664368 205.403259,337.985870 191.748672,341.405487 C169.951385,346.864258 148.146683,352.293335 126.113419,357.792786 C129.386826,365.389832 135.854736,369.990601 140.946732,375.433563 C156.712463,392.285919 172.365250,409.252075 188.279922,425.965118 C199.620178,437.874298 210.950821,449.782532 222.078903,461.893250 C236.125778,477.180511 250.560379,492.107544 264.666626,507.346283 C276.059601,519.653870 287.685577,531.760010 299.170227,543.993774 C315.209869,561.079529 331.612976,577.824097 348.362213,595.224121 M529.148438,389.379517 C528.578064,390.390228 527.943787,391.370605 527.446838,392.416199 C515.971069,416.560028 504.510620,440.711151 493.046234,464.860382 C486.991821,477.613678 480.978638,490.386810 474.868134,503.113190 C467.969299,517.481506 460.950958,531.792419 454.043579,546.156616 C448.940552,556.768616 443.942810,567.431274 438.878265,578.061829 C434.670135,586.894775 430.407898,595.702026 426.216003,604.542664 C422.466187,612.450928 418.779694,620.389282 415.065277,628.314331 C426.995697,615.888855 438.928253,603.644104 450.562958,591.131104 C455.533295,585.785583 460.940125,580.822388 465.582886,575.203369 C479.340240,558.553345 495.091309,543.753845 509.399017,527.606567 C517.754883,518.176392 526.403442,508.943542 535.181396,499.907654 C550.809692,483.820282 565.215027,466.602966 581.171265,450.839447 C586.605896,445.470520 591.400940,439.522888 596.666748,433.987610 C611.300232,418.605408 625.395508,402.711823 639.733948,387.048218 C647.352966,378.725067 655.078613,370.499054 662.647034,362.130493 C663.904663,360.739868 665.272156,359.135651 665.086426,356.844574 C663.958130,356.389740 662.922424,355.819702 661.813721,355.548553 C648.458801,352.282013 635.091187,349.067413 621.730591,345.824036 C601.616272,340.941040 581.483459,336.130554 561.414307,331.068024 C558.284973,330.278687 556.703491,331.043152 555.530701,333.759003 C554.083618,337.110168 552.625916,340.460388 551.042969,343.748566 C543.832336,358.726501 536.576233,373.682526 529.148438,389.379517 M126.729050,372.772858 C112.832069,359.530853 106.572952,343.185852 106.630104,324.126526 C106.726028,292.137756 106.674149,260.148468 106.648132,228.159378 C106.637085,214.576691 105.849121,200.933075 109.814064,187.077393 C105.826965,190.055771 102.899536,193.872650 99.615501,197.353027 C89.454857,208.121246 84.311462,220.815445 84.319008,235.624771 C84.336739,270.446228 84.221085,305.268158 84.379921,340.088867 C84.445602,354.487213 88.718300,367.606110 98.615562,378.362427 C112.913200,393.901031 127.367554,409.297546 141.895493,424.621490 C155.159225,438.612000 168.673462,452.364746 181.963577,466.330475 C203.156067,488.600311 224.256317,510.957977 245.391357,533.282471 C255.789185,544.265503 266.132263,555.300781 276.579437,566.236633 C300.132477,590.891479 323.684448,615.547913 347.359985,640.084839 C352.094421,644.991516 356.150391,650.496216 361.310364,655.031311 C372.487213,664.854553 386.146057,661.250000 394.725800,648.654846 C386.360901,646.959900 380.343445,642.094727 374.591553,635.930908 C361.436920,621.834229 348.104645,607.890137 334.748688,593.980164 C318.057129,576.596191 301.928802,558.690308 285.223297,541.329407 C274.967255,530.670959 264.879822,519.869629 254.860291,508.990143 C238.793640,491.544373 222.482849,474.319061 206.056686,457.210419 C196.963440,447.739349 188.354034,437.808960 179.179504,428.447021 C161.491669,410.397736 144.427795,391.778442 126.729050,372.772858 M140.222244,225.265091 C132.406418,217.651566 125.987915,208.593643 116.969879,201.889404 C115.540474,206.357437 115.311790,210.291870 115.317467,214.302948 C115.370026,251.439545 115.389236,288.576355 115.312775,325.712860 C115.297806,332.984985 117.295364,339.772186 119.423294,346.578918 C120.204056,349.076385 121.703049,350.019165 124.336487,349.341827 C130.264465,347.817078 136.231079,346.443176 142.168900,344.955841 C168.016815,338.481232 193.889420,332.100342 219.670090,325.367798 C223.128387,324.464691 227.143417,324.496002 230.317383,321.789307 C219.423660,309.730408 208.927826,297.751740 198.040634,286.139984 C179.061584,265.897827 159.841370,245.881836 140.222244,225.265091 M609.344360,333.790741 C628.428345,338.612732 647.518066,343.411926 666.589600,348.282684 C669.274719,348.968414 670.863403,347.936096 671.523376,345.513855 C673.046631,339.924286 674.676147,334.360291 674.670532,328.459320 C674.632446,288.332855 674.655518,248.206299 674.618103,208.079803 C674.616638,206.496780 675.177124,204.778030 673.527344,202.616791 C636.710693,241.871948 601.138855,281.971802 564.230530,322.283630 C579.230530,327.381470 594.148132,329.538452 609.344360,333.790741 z"/> </svg>