<svg xmlns="http://www.w3.org/2000/svg" viewBox="-6 -6 54.18 54.18">
  <rect x="-6" y="-6" width="54.18" height="54.18" rx="11" fill="#110a07"/>
  <path fill="#aa000d" d="M592.68,255.5v42.19h42.19V255.5Zm33.57,29.73a39.89,39.89,0,0,1,8.51,12.38,41.81,41.81,0,0,1-21-21h0l0,0,0,0a41.83,41.83,0,0,1-21,21,41.83,41.83,0,0,1,21-21,41.76,41.76,0,0,1-21-21,41.76,41.76,0,0,1,21,21h0a41.73,41.73,0,0,1,21-21,41.8,41.8,0,0,1-20.91,21A40,40,0,0,1,626.25,285.23Z" transform="translate(-592.68 -255.5)"/>
</svg>
