<?xml version="1.0" encoding="UTF-8"?>
<svg xmlns="http://www.w3.org/2000/svg" version="1.1" viewBox="0 0 1000 1000">
  <defs>
    <style>
      .cls-1 {
        fill: #fff;
      }
    </style>
  </defs>
  <!-- Generator: Adobe Illustrator 28.6.0, SVG Export Plug-In . SVG Version: 1.2.0 Build 709)  -->
  <g>
    <g id="_Слой_1" data-name="Слой_1">
      <g>
        <path class="cls-1" d="M696.39,632.15c.96,1.52,1.93,3.05,2.92,4.57.4.65.81,1.31,1.21,1.96l3.48,5.47.78,1.21h58.56v-13.21h-66.96ZM420.01,99v83.93h64.41v-83.93h-64.41Z"/>
        <g>
          <path class="cls-1" d="M484.42,220.98v45.82c-.31-.06-.65-.16-.96-.22-8.42-1.93-17.35-3.48-26.55-4.6-3.08-.47-6.03-.71-8.89-.96-1.43-.12-2.86-.25-4.29-.4h-.06l-.09-.03c-3.11-.28-6.09-.4-9.01-.5-1.43-.06-2.86-.09-4.29-.19h-.34c-2.3-.06-4.6-.09-6.9-.09-.99,0-2.02,0-3.02.03v-38.86h64.41Z"/>
          <path class="cls-1" d="M600.43,645.36h-180.42v-353.57c2.42.22,4.88.47,7.27.78,1.46.25,2.95.44,4.41.65,2.49.34,4.85.65,7.09,1.09,1.49.34,3.02.62,4.51.9,2.46.47,4.76.9,6.87,1.46l.09.03.09.03c7.86,1.96,15.36,4.23,22.35,6.75,3.92,1.4,7.8,2.92,11.72,4.6v294.35c0,8.27,2.89,15.26,8.64,21.04,5.78,5.78,12.78,8.67,21.04,8.67h77.99c.06.09.12.22.19.31.65,1.03,1.31,2.05,1.96,3.11.44.65.84,1.34,1.27,2.02.22.34.44.71.68,1.06,0,.03.03.06.03.09s.03.03.06.06c.65,1.09,1.34,2.14,2.02,3.23.71,1.09,1.4,2.21,2.11,3.33Z"/>
          <path class="cls-1" d="M494.8,208.55c.68,0,1.37,0,2.05.03v-.03h-2.05ZM602.63,625.52l-3.67-5.81h-.03c2.55,4.01,5.16,8.14,7.83,12.43.28.47.59.9.9,1.37-1.71-2.7-3.42-5.38-5.04-7.99Z"/>
        </g>
        <g>
          <path class="cls-1" d="M675.09,336.12c0,27.08-4.13,50.14-12.37,69.17-2.08,4.82-4.41,9.36-7.06,13.65-4.01,6.62-8.67,12.62-13.93,18.03-1.65,1.71-3.36,3.36-5.1,4.97-3.14,2.95-6.43,5.75-9.82,8.33-19.8,15.42-43.77,25.93-71.93,31.58,25.24,6.03,43.36,17.56,54.34,34.57,4.94,7.68,13.02,20.58,24.28,38.7,6,9.64,12.25,19.65,18.71,30-1.74,20.21-6.03,39.85-12.78,58.04-3.02,8.21-6.53,16.23-10.57,24-1.99-3.17-3.98-6.28-5.91-9.36-2.67-4.26-5.28-8.39-7.86-12.43-1.43-2.27-2.83-4.51-4.23-6.71-1.09-1.74-2.14-3.45-3.2-5.13-1.71-2.7-3.42-5.38-5.04-7.99l-3.67-5.81h-.03c-27.91-44.2-46.16-73.18-54.74-86.85-9.33-14.24-20.45-25.21-33.32-32.92-4.97-2.95-9.67-5.38-14.02-7.27v-19.09c30.96-.47,57.73-11.84,80.26-34.13,10.41-10.29,18.46-21.54,24.18-33.76,2.11-4.54,3.92-9.2,5.35-14.02,3.39-10.97,5.07-22.6,5.07-34.97v-31.27c0-32.36-11.53-59.96-34.6-82.72-22.54-22.29-49.3-33.67-80.26-34.13v-.03h-123.07v265.07h33.79v13.46c-8.83.93-16.38,4.54-22.66,10.82-7.43,7.4-11.13,16.6-11.13,27.57v214.86h-64.19V195.36h193.44c20.86,0,40.88,2.33,60.09,6.99,19.21,4.66,37.46,12.09,54.74,22.23,17.28,10.16,31.15,24.84,41.59,44.05,10.41,19.21,15.64,41.72,15.64,67.49Z"/>
          <path class="cls-1" d="M496.85,208.55v.03c-.68-.03-1.37-.03-2.05-.03h2.05Z"/>
          <path class="cls-1" d="M607.67,633.51c-.31-.47-.62-.9-.9-1.37-2.67-4.29-5.28-8.42-7.83-12.43h.03l3.67,5.81c1.62,2.61,3.33,5.28,5.04,7.99Z"/>
          <path class="cls-1" d="M749.98,740.32h-74.88c-8.92-14.14-17.41-27.54-25.43-40.29,8.52-13.9,15.98-28.69,22.29-44.3,3.33-8.21,6.28-16.51,8.89-24.9.28.44.56.87.84,1.31,2.83,4.45,5.6,8.86,8.36,13.21,2.67,4.2,5.32,8.33,7.93,12.43,3.23,5.07,6.43,10.07,9.64,15.01,12.34,19.24,26.45,41.72,42.37,67.52Z"/>
          <path class="cls-1" d="M696.57,632.39c-.06-.09-.09-.16-.16-.25h-.03c.96,1.52,1.93,3.05,2.92,4.57-.93-1.43-1.83-2.86-2.74-4.32ZM596.2,638.64c-.25-.34-.47-.71-.68-1.06.25.37.47.78.71,1.15,0-.03-.03-.06-.03-.09ZM598.31,642.03c.68,1.12,1.37,2.21,2.08,3.33h.03c-.71-1.12-1.4-2.24-2.11-3.33Z"/>
        </g>
        <g>
          <path class="cls-1" d="M682.27,550.67c-.68,16.57-2.77,33.01-6.22,49.11-1.15,5.69-2.52,11.32-4.07,16.88-3.17,11.72-7.06,23.19-11.56,34.41-5.16,12.78-11.25,25.24-18.22,37.15-2.3,3.98-4.73,7.93-7.27,11.78-8.64,13.24-18.4,25.74-29.31,37.27-2.92,3.14-6.06,6.06-9.08,9.14-3.14,2.95-6.4,5.75-9.57,8.64l-9.98,8.24-10.38,7.71c-14.21,9.85-29.41,18.43-45.45,25.21-5.84,2.49-11.81,4.73-17.87,6.71-3.26,1.12-6.56,2.11-9.89,3.08-7.58,2.18-15.26,3.98-23.07,5.41-5.81,1.06-11.69,1.9-17.59,2.52-7.86.81-15.82,1.24-23.75,1.24-3.57,0-7.15-.09-10.72-.25-35.38-1.52-70.32-11.22-102.02-27.08-63.66-31.58-114.18-88.66-138.64-155.4-12.25-33.32-18.56-68.92-17.87-104.32.65-35.44,8.83-70.56,23.38-102.36,7.27-15.92,16.16-30.96,26.33-44.98,5.07-7.03,10.51-13.71,16.23-20.14,2.8-3.26,5.88-6.31,8.77-9.45,2.95-3.11,6.15-5.97,9.2-8.95,16.26-15.01,34.26-27.88,53.53-38.3v4.51c-17.78,10.79-33.88,24.25-47.47,39.73-22.04,24.65-37.64,54.28-47.31,85.05-9.73,30.84-13.55,63.01-12.53,94.75.99,31.74,7.43,63.17,18.81,92.76,11.41,29.56,27.67,57.1,48.06,81.29,12.03,14.24,25.61,27.17,40.44,38.48,5.63,4.35,11.44,8.42,17.41,12.25,4.97,3.17,10.04,6.19,15.23,9.01,27.85,15.17,58.66,24.84,90.3,28.26,3.95.47,7.93.65,11.91.99,3.98.22,7.96.22,11.97.34l11.97-.22,12-.87c15.95-1.55,31.8-4.94,47.19-10.01,30.77-10.1,59.62-27.23,82.94-50.39,11.84-11.63,22.32-24.65,31.27-38.67,2.52-3.92,4.91-7.93,7.18-12,5.69-10.2,10.57-20.83,14.58-31.74,5.47-14.77,9.33-30.06,11.63-45.54,1.03-6.62,1.74-13.27,2.18-19.93.75-10.41.81-20.86.25-31.24-1.83-32.55-9.64-64.35-21.88-94-.4-.96-.81-1.96-1.24-2.92,2.98-2.64,5.84-5.38,8.61-8.21,4.01-4.1,7.71-8.52,11.07-13.24,2.11,5,4.04,10.1,5.81,15.23,5.66,16.6,9.76,33.73,12.22,51.01,2.42,17.28,3.3,34.72,2.55,52.04Z"/>
          <path class="cls-1" d="M599.28,341.47v15.23c0,7.86-.72,15.36-2.24,22.51-21.26-26.11-46.88-48.74-76.13-66.46-7.77-4.63-15.79-8.92-24.06-12.78-4.07-1.9-8.24-3.7-12.43-5.35-2.49-.99-4.97-1.96-7.49-2.86-7.71-2.77-15.57-5.1-23.56-7.09-3.98-1.09-8.05-1.68-12.09-2.55-4.04-.78-8.14-1.21-12.25-1.87-2.98-.37-6-.71-9.01-.93-4.13-.34-8.27-.56-12.43-.62-1.37-.06-2.7-.06-4.07-.06-5.75,0-11.53.25-17.28.75v-4.6c7.06-.99,14.21-1.68,21.36-2.08,4.13-.25,8.3-.4,12.43-.44.99-.03,2.02-.03,3.02-.03,2.18,0,4.38.03,6.59.09,4.26.22,8.55.25,12.81.65,4.26.44,8.58.68,12.81,1.31,8.55,1.06,17.03,2.49,25.46,4.41,1.24.28,2.49.56,3.73.9,4.17.99,8.3,2.08,12.43,3.33,11.28,3.3,22.41,7.37,33.2,12.25,25.24,11.41,48.84,27.08,69.23,46.29Z"/>
        </g>
      </g>
    </g>
  </g>
</svg>