<?xml version="1.0" encoding="UTF-8"?>
<svg xmlns="http://www.w3.org/2000/svg" version="1.1" viewBox="0 0 1102.19 1003.3">
  <defs>
    <style>
      .cls-1 {
        fill: #fff;
      }

      .cls-2 {
        fill: #aa000d;
      }
    </style>
  </defs>
  <!-- Generator: Adobe Illustrator 28.6.0, SVG Export Plug-In . SVG Version: 1.2.0 Build 709)  -->
  <g>
    <g id="_Слой_1" data-name="Слой_1">
      <g>
        <path class="cls-1" d="M134.2,685.95c1.41,2.2,3.73,5.88,6.94,11.06,3.21,5.18,6.67,10.71,10.36,16.59,3.69,5.88,7.3,11.58,10.83,17.07,3.53,5.5,7.57,11.93,12.12,19.3h-21.42c-20.71-32.8-33.19-52.57-37.43-59.32-2.67-4.08-5.85-7.22-9.53-9.42-3.69-2.2-6.79-3.37-9.3-3.53l-3.77-.24h-15.06c-3.14,0-5.77,1.06-7.89,3.18-2.12,2.12-3.18,4.75-3.18,7.89v61.44h-18.36v-155.83h55.32c5.96,0,11.69.67,17.18,2,5.49,1.33,10.71,3.45,15.65,6.36,4.94,2.91,8.9,7.1,11.89,12.59,2.98,5.5,4.47,11.93,4.47,19.3,0,12.71-3.18,22.33-9.53,28.83-6.36,6.51-14.63,10.79-24.83,12.83,7.22,1.73,12.39,5.02,15.54,9.89ZM101.48,673.71c9.1,0,16.95-3.25,23.54-9.77,6.59-6.51,9.89-14.4,9.89-23.66v-8.95c0-9.26-3.3-17.14-9.89-23.66-6.59-6.51-14.44-9.77-23.54-9.77h-34.6v75.8h34.6Z"/>
        <path class="cls-1" d="M204.11,668.53v77.68h83.8v3.77h-102.16v-155.83h99.81v3.77h-81.45v56.96h57.91v3.77h-48.02c-2.82,0-5.18.98-7.06,2.94-1.88,1.96-2.82,4.28-2.82,6.94Z"/>
        <path class="cls-1" d="M317.8,749.97h-18.36v-155.83h18.36v155.83Z"/>
        <path class="cls-1" d="M443.73,594.14h3.77v155.83h-3.77l-92.51-137c-.94-1.25-2.12-1.65-3.53-1.18-1.41.47-2.12,1.49-2.12,3.06v135.11h-3.77v-150.65l-3.53-5.18h11.53c7.06,0,12.55,2.91,16.48,8.71l72.03,106.4c.78,1.26,1.88,1.65,3.3,1.18,1.41-.47,2.12-1.49,2.12-3.06v-113.22Z"/>
        <path class="cls-1" d="M525.88,594.14l62.61,155.83h-20.01l-17.89-45.67h-69.67l-17.65,45.67h-4.24l60.73-155.83h6.12ZM482.33,700.54h66.85l-30.13-76.27c-.63-1.73-1.85-2.59-3.65-2.59s-3.02.86-3.65,2.59l-29.42,76.27Z"/>
        <path class="cls-1" d="M687.35,685c6.27,6.91,9.42,14.36,9.42,22.36,0,8.94-2.59,16.87-7.77,23.77-5.18,6.91-11.65,12.04-19.42,15.42-7.77,3.38-15.97,5.06-24.6,5.06-19.62,0-35.94-5.73-48.96-17.18l-2.82-2.82,11.06-17.65c.62.94,1.49,2.28,2.59,4,1.1,1.73,3.49,4.67,7.18,8.83,3.69,4.16,7.49,7.73,11.42,10.71,3.92,2.98,8.75,5.5,14.48,7.53,5.73,2.04,11.42,2.67,17.07,1.88,2.67-.47,5.41-1.33,8.24-2.59,2.83-1.25,5.65-2.98,8.47-5.18,2.83-2.2,5.1-5.1,6.83-8.71,1.72-3.61,2.59-7.53,2.59-11.77,0-3.61-.59-6.94-1.77-10-1.18-3.06-3.06-5.88-5.65-8.47s-5.1-4.83-7.53-6.71c-2.43-1.88-5.69-3.84-9.77-5.88-4.08-2.04-7.3-3.57-9.65-4.59-2.35-1.02-5.65-2.39-9.89-4.12-7.06-2.67-12.56-4.86-16.48-6.59-18.83-7.53-28.25-21.19-28.25-40.96,0-10.83,4.83-19.89,14.48-27.19s21.54-10.95,35.66-10.95c17.73,0,31.78,3.53,42.14,10.59l.94.71-11.3,16.24c-.79-.94-2.04-2.16-3.77-3.65-1.73-1.49-5.3-3.88-10.71-7.18-5.41-3.29-10.95-5.88-16.59-7.77-9.26-2.35-17.62-2.35-25.07,0-7.46,2.35-12.44,6.12-14.95,11.3-3.92,8-3.14,15.85,2.35,23.54,5.49,7.69,12.95,13.58,22.36,17.65l30.6,13.18c11.77,4.55,20.79,10.28,27.07,17.18Z"/>
        <path class="cls-1" d="M739.14,746.21h71.09v3.77h-97.92v-155.83h18.36v143.59c0,2.35.82,4.35,2.47,6,1.65,1.65,3.65,2.47,6,2.47Z"/>
        <path class="cls-1" d="M838.47,668.53v77.68h83.8v3.77h-102.16v-155.83h99.81v3.77h-81.45v56.96h57.91v3.77h-48.02c-2.83,0-5.18.98-7.06,2.94-1.88,1.96-2.83,4.28-2.83,6.94Z"/>
        <path class="cls-1" d="M994.77,590.85c10.04,0,19.77,1.77,29.19,5.3,9.42,3.53,17.93,8.59,25.54,15.18,7.61,6.59,13.69,15.15,18.24,25.66,4.55,10.52,6.83,22.21,6.83,35.07,0,10.83-1.53,20.71-4.59,29.66-3.06,8.94-7.18,16.52-12.36,22.71-5.18,6.2-11.22,11.46-18.12,15.77-6.91,4.32-14.12,7.46-21.66,9.42-7.53,1.96-15.22,2.94-23.07,2.94s-15.58-1.02-23.19-3.06c-7.61-2.04-14.87-5.22-21.77-9.53-6.91-4.31-12.99-9.61-18.24-15.89-5.26-6.28-9.42-13.97-12.48-23.07-3.06-9.1-4.59-18.99-4.59-29.66,0-23.69,7.45-43.04,22.36-58.02,14.91-14.98,34.21-22.48,57.91-22.48ZM1040.43,732.55c10.36-10.83,15.22-25.89,14.59-45.2-.47-10.83-2.44-21.62-5.88-32.37-3.45-10.75-8.08-20.44-13.89-29.07-5.81-8.63-13.06-15.57-21.77-20.83-8.71-5.26-17.93-7.89-27.66-7.89-15.22,0-27.39,4.87-36.49,14.59-10.83,11.46-15.85,27.15-15.07,47.08.31,10.67,2.24,21.23,5.77,31.66,3.53,10.44,8.2,19.89,14.01,28.37,5.8,8.47,13.06,15.3,21.77,20.48,8.71,5.18,18.01,7.77,27.89,7.77,15.38,0,27.62-4.86,36.72-14.59Z"/>
        <path class="cls-2" d="M973.85,652.32v42.18h42.18v-42.18h-42.18ZM1007.42,682.05c5.23,5.25,7.64,10.34,8.51,12.38-2.05-.87-7.13-3.29-12.37-8.53-5.26-5.25-7.7-10.35-8.59-12.43,0,0-.02,0-.03.01,0-.01.01-.02.02-.04,0-.01-.01-.02-.02-.04-.87,2.04-3.31,7.19-8.62,12.49-5.24,5.23-10.33,7.65-12.37,8.53.87-2.05,3.28-7.13,8.51-12.38,5.29-5.32,10.44-7.76,12.48-8.64-2.05-.87-7.13-3.29-12.37-8.53-5.31-5.3-7.75-10.45-8.62-12.49,2.04.87,7.19,3.32,12.48,8.64,5.23,5.25,7.64,10.34,8.51,12.38,0,0,.02,0,.03.01.89-2.08,3.31-7.12,8.48-12.32,5.29-5.32,10.44-7.76,12.48-8.64-.87,2.04-3.31,7.19-8.62,12.49-5.18,5.17-10.2,7.59-12.29,8.49,2.09.9,7.17,3.35,12.4,8.6Z"/>
      </g>
      <g>
        <path class="cls-1" d="M642.77,443.64c.4.64.8,1.27,1.22,1.91.17.27.34.54.51.82l1.45,2.28.32.51h24.44v-5.51h-27.94ZM527.46,221.19v35.02h26.87v-35.02h-26.87Z"/>
        <g>
          <path class="cls-1" d="M554.33,272.08v19.12c-.13-.03-.27-.06-.4-.09-3.51-.8-7.24-1.45-11.08-1.92-1.28-.19-2.52-.3-3.71-.4-.6-.05-1.19-.1-1.79-.17h-.06c-1.3-.13-2.54-.18-3.76-.22-.6-.03-1.19-.04-1.79-.08h-.14c-.96-.03-1.92-.04-2.88-.04-.42,0-.84,0-1.26.01v-16.21h26.87Z"/>
          <path class="cls-1" d="M602.73,449.15h-75.28v-147.52c1.01.09,2.04.19,3.03.32.61.1,1.23.18,1.84.27,1.04.14,2.02.27,2.96.45.62.14,1.26.26,1.88.38,1.02.19,1.98.38,2.87.61h.04s.04.03.04.03c3.28.82,6.41,1.76,9.33,2.81,1.63.58,3.26,1.22,4.89,1.92v122.81c0,3.45,1.21,6.37,3.61,8.78,2.41,2.41,5.33,3.62,8.78,3.62h32.54s.05.09.08.13c.27.43.54.86.82,1.3.18.27.35.56.53.84.09.14.18.3.29.44,0,.01.01.03.01.04s.01.01.03.03c.27.45.56.89.84,1.35.3.45.58.92.88,1.39Z"/>
          <path class="cls-1" d="M558.66,266.89c.29,0,.57,0,.86.01h0s-.86-.01-.86-.01ZM603.66,440.87l-1.53-2.43h-.01c1.06,1.67,2.15,3.4,3.27,5.19.12.19.25.38.38.57-.71-1.13-1.43-2.24-2.1-3.33Z"/>
        </g>
        <g>
          <path class="cls-1" d="M633.89,320.12c0,11.3-1.73,20.92-5.16,28.86-.87,2.01-1.84,3.9-2.94,5.69-1.67,2.76-3.62,5.27-5.81,7.52-.69.71-1.4,1.4-2.13,2.08-1.31,1.23-2.68,2.4-4.1,3.48-8.26,6.43-18.26,10.82-30.01,13.18,10.53,2.52,18.09,7.33,22.67,14.42,2.06,3.2,5.43,8.59,10.13,16.15,2.5,4.02,5.11,8.2,7.81,12.52-.73,8.43-2.52,16.63-5.33,24.22-1.26,3.42-2.72,6.77-4.41,10.01-.83-1.32-1.66-2.62-2.46-3.9-1.12-1.78-2.2-3.5-3.28-5.19-.6-.95-1.18-1.88-1.76-2.8-.45-.73-.89-1.44-1.34-2.14-.71-1.13-1.43-2.24-2.1-3.33l-1.53-2.43h-.01c-11.65-18.44-19.26-30.53-22.84-36.24-3.89-5.94-8.53-10.52-13.9-13.74-2.08-1.23-4.03-2.24-5.85-3.03v-7.96c12.92-.19,24.09-4.94,33.49-14.24,4.34-4.29,7.7-8.99,10.09-14.09.88-1.89,1.63-3.84,2.23-5.85,1.41-4.58,2.11-9.43,2.11-14.59v-13.05c0-13.5-4.81-25.02-14.44-34.51-9.4-9.3-20.57-14.05-33.49-14.24h0s-51.35-.01-51.35-.01v110.6h14.1v5.62c-3.68.39-6.84,1.89-9.46,4.51-3.1,3.09-4.64,6.93-4.64,11.5v89.65h-26.78v-227.38h80.71c8.7,0,17.06.97,25.07,2.92s15.63,5.05,22.84,9.27c7.21,4.24,13,10.36,17.35,18.38,4.34,8.02,6.52,17.41,6.52,28.16Z"/>
          <path class="cls-1" d="M559.52,266.89h-.86.86Z"/>
          <path class="cls-1" d="M605.76,444.21c-.13-.19-.26-.38-.38-.57-1.12-1.79-2.2-3.51-3.27-5.19h.01l1.53,2.43c.67,1.09,1.39,2.2,2.1,3.33Z"/>
          <path class="cls-1" d="M665.13,488.77h-31.24c-3.72-5.9-7.26-11.49-10.61-16.81,3.55-5.8,6.67-11.97,9.3-18.48,1.39-3.42,2.62-6.89,3.71-10.39.12.18.23.36.35.54,1.18,1.85,2.33,3.7,3.49,5.51,1.12,1.75,2.22,3.48,3.31,5.19,1.35,2.11,2.68,4.2,4.02,6.26,5.15,8.03,11.04,17.41,17.68,28.17Z"/>
          <path class="cls-1" d="M642.85,443.74s-.04-.06-.06-.1h-.01c.4.64.8,1.27,1.22,1.91-.39-.6-.77-1.19-1.14-1.8ZM600.97,446.35c-.1-.14-.19-.3-.29-.44.1.16.19.32.3.48,0-.01-.01-.03-.01-.04ZM601.85,447.76c.29.47.57.92.87,1.39h.01c-.3-.47-.58-.93-.88-1.39Z"/>
        </g>
        <g>
          <path class="cls-1" d="M636.88,409.64c-.29,6.91-1.15,13.77-2.59,20.49-.48,2.37-1.05,4.72-1.7,7.04-1.32,4.89-2.94,9.68-4.82,14.36-2.15,5.33-4.7,10.53-7.6,15.5-.96,1.66-1.97,3.31-3.04,4.92-3.61,5.53-7.68,10.74-12.23,15.55-1.22,1.31-2.53,2.53-3.79,3.81-1.31,1.23-2.67,2.4-3.99,3.61l-4.16,3.44-4.33,3.22c-5.93,4.11-12.27,7.69-18.96,10.52-2.44,1.04-4.93,1.97-7.46,2.8-1.36.47-2.74.88-4.12,1.28-3.16.91-6.37,1.66-9.62,2.26-2.43.44-4.88.79-7.34,1.05-3.28.34-6.6.52-9.91.52-1.49,0-2.98-.04-4.47-.1-14.76-.64-29.34-4.68-42.57-11.3-26.56-13.18-47.64-36.99-57.85-64.84-5.11-13.9-7.74-28.75-7.46-43.53.27-14.79,3.68-29.44,9.75-42.71,3.03-6.64,6.74-12.92,10.99-18.77,2.11-2.93,4.38-5.72,6.77-8.4,1.17-1.36,2.45-2.63,3.66-3.94,1.23-1.3,2.57-2.49,3.84-3.74,6.78-6.26,14.29-11.63,22.33-15.98v1.88c-7.42,4.5-14.14,10.12-19.81,16.58-9.2,10.29-15.71,22.65-19.74,35.49-4.06,12.87-5.66,26.29-5.23,39.53.42,13.24,3.1,26.36,7.85,38.7,4.76,12.33,11.54,23.83,20.05,33.92,5.02,5.94,10.69,11.34,16.87,16.06,2.35,1.82,4.77,3.51,7.26,5.11,2.08,1.32,4.19,2.58,6.36,3.76,11.62,6.33,24.47,10.36,37.68,11.79,1.65.19,3.31.27,4.97.42,1.66.09,3.32.09,4.99.14l4.99-.09,5.01-.36c6.65-.65,13.27-2.06,19.69-4.18,12.84-4.22,24.88-11.36,34.6-21.02,4.94-4.85,9.31-10.29,13.05-16.13,1.05-1.63,2.05-3.31,3-5.01,2.37-4.25,4.41-8.69,6.08-13.24,2.28-6.16,3.89-12.54,4.85-19,.43-2.76.73-5.54.91-8.31.31-4.34.34-8.7.1-13.03-.77-13.58-4.02-26.85-9.13-39.22-.17-.4-.34-.82-.52-1.22,1.25-1.1,2.44-2.24,3.59-3.42,1.67-1.71,3.22-3.55,4.62-5.53.88,2.09,1.69,4.22,2.43,6.36,2.36,6.93,4.07,14.07,5.1,21.28,1.01,7.21,1.37,14.49,1.06,21.71Z"/>
          <path class="cls-1" d="M602.25,322.35v6.36c0,3.28-.3,6.41-.93,9.39-8.87-10.89-19.56-20.34-31.76-27.73-3.24-1.93-6.59-3.72-10.04-5.33-1.7-.79-3.44-1.54-5.19-2.23-1.04-.42-2.08-.82-3.13-1.19-3.22-1.15-6.5-2.13-9.83-2.96-1.66-.45-3.36-.7-5.05-1.06-1.69-.32-3.4-.51-5.11-.78-1.25-.16-2.5-.3-3.76-.39-1.73-.14-3.45-.23-5.19-.26-.57-.03-1.13-.03-1.7-.03-2.4,0-4.81.1-7.21.31v-1.92c2.94-.42,5.93-.7,8.91-.87,1.72-.1,3.46-.17,5.19-.18.41-.01.84-.01,1.26-.01.91,0,1.83.01,2.75.04,1.78.09,3.57.1,5.34.27,1.78.18,3.58.29,5.34.54,3.57.44,7.11,1.04,10.62,1.84.52.12,1.04.23,1.56.38,1.74.42,3.46.87,5.19,1.39,4.71,1.37,9.35,3.07,13.85,5.11,10.53,4.76,20.38,11.3,28.88,19.31Z"/>
        </g>
      </g>
    </g>
  </g>
</svg>