<svg id="Слой_1" data-name="Слой 1" xmlns="http://www.w3.org/2000/svg" viewBox="0 0 1026.05 161.71"><path d="M193,300.13q2.13,3.3,6.95,11.06t10.36,16.6q5.52,8.82,10.82,17.06t12.13,19.3H211.86Q180.78,315,174.43,304.84a29.52,29.52,0,0,0-9.54-9.42q-5.52-3.3-9.29-3.53l-3.77-.24H136.77a10.86,10.86,0,0,0-11.07,11.07v61.43H107.34V208.33h55.32a72.23,72.23,0,0,1,17.18,2,57.73,57.73,0,0,1,15.66,6.35,31.83,31.83,0,0,1,11.88,12.59,39.91,39.91,0,0,1,4.48,19.31q0,19.07-9.54,28.83t-24.83,12.83Q188.3,292.84,193,300.13ZM160.3,287.89a33.56,33.56,0,0,0,33.43-33.43v-8.94a33.56,33.56,0,0,0-33.43-33.43H125.7v75.8Z" transform="translate(-107.34 -205.03)"/><path d="M262.93,282.71v77.68h83.8v3.76H244.57V208.33h99.81v3.76H262.93v57h57.91v3.76h-48a9.39,9.39,0,0,0-7.06,2.94A9.7,9.7,0,0,0,262.93,282.71Z" transform="translate(-107.34 -205.03)"/><path d="M376.62,364.15H358.26V208.33h18.36Z" transform="translate(-107.34 -205.03)"/><path d="M502.56,208.33h3.76V364.15h-3.76l-92.51-137A3.1,3.1,0,0,0,404.4,229V364.15h-3.77V213.5l-3.53-5.17h11.54a18.77,18.77,0,0,1,16.47,8.7l72,106.4a2.57,2.57,0,0,0,3.3,1.18,2.92,2.92,0,0,0,2.12-3.06Z" transform="translate(-107.34 -205.03)"/><path d="M584.7,208.33l62.62,155.82h-20l-17.89-45.66H539.74l-17.65,45.66h-4.24l60.73-155.82ZM541.16,314.72H608l-30.13-76.26a3.87,3.87,0,0,0-7.3,0Z" transform="translate(-107.34 -205.03)"/><path d="M746.18,299.19q9.41,10.35,9.41,22.36a38.54,38.54,0,0,1-7.76,23.77,47.59,47.59,0,0,1-19.42,15.42,61,61,0,0,1-24.6,5.06q-29.43,0-49-17.18L652,345.79l11.07-17.65c.62.94,1.49,2.28,2.59,4a84.45,84.45,0,0,0,7.18,8.83,79.79,79.79,0,0,0,11.41,10.71,53.36,53.36,0,0,0,14.48,7.53,31.44,31.44,0,0,0,25.3-.71,41.06,41.06,0,0,0,8.48-5.17,23.92,23.92,0,0,0,6.82-8.71,26.9,26.9,0,0,0,2.59-11.77,27.82,27.82,0,0,0-1.76-10,24.35,24.35,0,0,0-5.65-8.47,78.78,78.78,0,0,0-7.54-6.71,60.81,60.81,0,0,0-9.76-5.89c-4.09-2-7.3-3.56-9.66-4.59s-5.64-2.39-9.88-4.11q-10.59-4-16.48-6.6-28.25-11.3-28.25-41,0-16.25,14.48-27.19t35.66-11q26.6,0,42.14,10.6l.94.7-11.3,16.24a34.82,34.82,0,0,0-3.77-3.64,92.66,92.66,0,0,0-10.71-7.18,80.85,80.85,0,0,0-16.59-7.77q-13.89-3.54-25.07,0t-15,11.3q-5.88,12,2.36,23.54a52.3,52.3,0,0,0,22.36,17.65L719.11,282Q736.77,288.84,746.18,299.19Z" transform="translate(-107.34 -205.03)"/><path d="M798,360.39h71.09v3.76H771.13V208.33h18.36V351.91a8.43,8.43,0,0,0,8.47,8.48Z" transform="translate(-107.34 -205.03)"/><path d="M897.3,282.71v77.68h83.8v3.76H878.94V208.33h99.8v3.76H897.3v57h57.9v3.76h-48a9.39,9.39,0,0,0-7.06,2.94A9.73,9.73,0,0,0,897.3,282.71Z" transform="translate(-107.34 -205.03)"/><path d="M1053.59,205a82.45,82.45,0,0,1,29.19,5.3,83.43,83.43,0,0,1,25.54,15.18q11.42,9.88,18.25,25.66a87.38,87.38,0,0,1,6.82,35.07,91.18,91.18,0,0,1-4.59,29.66,70.63,70.63,0,0,1-12.36,22.71,75.83,75.83,0,0,1-18.12,15.78,77.69,77.69,0,0,1-21.66,9.41,91.21,91.21,0,0,1-23.07,2.94,89.16,89.16,0,0,1-23.18-3.06,79.76,79.76,0,0,1-21.77-9.53,76.45,76.45,0,0,1-18.25-15.89,70.27,70.27,0,0,1-12.47-23.07,92.49,92.49,0,0,1-4.59-29.66q0-35.53,22.36-58T1053.59,205Zm45.67,141.7q15.54-16.23,14.6-45.19a123.42,123.42,0,0,0-5.89-32.37,114.37,114.37,0,0,0-13.89-29.07,69,69,0,0,0-21.77-20.83,52.64,52.64,0,0,0-27.66-7.88q-22.83,0-36.49,14.59-16.23,17.19-15.06,47.08a108.17,108.17,0,0,0,5.77,31.66,115.19,115.19,0,0,0,14,28.36,68.68,68.68,0,0,0,21.78,20.48,53.65,53.65,0,0,0,27.89,7.77Q1085.61,361.33,1099.26,346.73Z" transform="translate(-107.34 -205.03)"/></svg>