<?xml version="1.0" encoding="UTF-8"?>
<svg xmlns="http://www.w3.org/2000/svg" version="1.1" viewBox="0 0 1227 554">
  <defs>
    <style>
      .cls-1 {
        fill: #aa000d;
      }
    </style>
  </defs>
  <!-- Generator: Adobe Illustrator 28.6.0, SVG Export Plug-In . SVG Version: 1.2.0 Build 709)  -->
  <g>
    <g id="_Слой_1" data-name="Слой_1">
      <g>
        <path d="M193.02,300.13c1.41,2.2,3.73,5.88,6.94,11.06,3.21,5.18,6.67,10.71,10.36,16.59,3.69,5.88,7.3,11.58,10.83,17.07,3.53,5.5,7.57,11.93,12.12,19.3h-21.42c-20.71-32.8-33.19-52.57-37.43-59.32-2.67-4.08-5.85-7.22-9.53-9.42-3.69-2.2-6.79-3.37-9.3-3.53l-3.77-.24h-15.06c-3.14,0-5.77,1.06-7.89,3.18-2.12,2.12-3.18,4.75-3.18,7.89v61.44h-18.36v-155.83h55.32c5.96,0,11.69.67,17.18,2,5.49,1.33,10.71,3.45,15.65,6.36,4.94,2.91,8.9,7.1,11.89,12.59,2.98,5.5,4.47,11.93,4.47,19.3,0,12.71-3.18,22.33-9.53,28.83-6.36,6.51-14.63,10.79-24.83,12.83,7.22,1.73,12.39,5.02,15.54,9.89ZM160.3,287.89c9.1,0,16.95-3.25,23.54-9.77,6.59-6.51,9.89-14.4,9.89-23.66v-8.95c0-9.26-3.3-17.14-9.89-23.66-6.59-6.51-14.44-9.77-23.54-9.77h-34.6v75.8h34.6Z"/>
        <path d="M262.93,282.71v77.68h83.8v3.77h-102.16v-155.83h99.81v3.77h-81.45v56.96h57.91v3.77h-48.02c-2.82,0-5.18.98-7.06,2.94-1.88,1.96-2.82,4.28-2.82,6.94Z"/>
        <path d="M376.62,364.15h-18.36v-155.83h18.36v155.83Z"/>
        <path d="M502.56,208.33h3.77v155.83h-3.77l-92.51-137c-.94-1.25-2.12-1.65-3.53-1.18-1.41.47-2.12,1.49-2.12,3.06v135.11h-3.77v-150.65l-3.53-5.18h11.53c7.06,0,12.55,2.91,16.48,8.71l72.03,106.4c.78,1.26,1.88,1.65,3.3,1.18,1.41-.47,2.12-1.49,2.12-3.06v-113.22Z"/>
        <path d="M584.7,208.33l62.61,155.83h-20.01l-17.89-45.67h-69.67l-17.65,45.67h-4.24l60.73-155.83h6.12ZM541.16,314.72h66.85l-30.13-76.27c-.63-1.73-1.85-2.59-3.65-2.59s-3.02.86-3.65,2.59l-29.42,76.27Z"/>
        <path d="M746.18,299.19c6.27,6.91,9.42,14.36,9.42,22.36,0,8.94-2.59,16.87-7.77,23.77-5.18,6.91-11.65,12.04-19.42,15.42-7.77,3.38-15.97,5.06-24.6,5.06-19.62,0-35.94-5.73-48.96-17.18l-2.82-2.82,11.06-17.65c.62.94,1.49,2.28,2.59,4,1.1,1.73,3.49,4.67,7.18,8.83,3.69,4.16,7.49,7.73,11.42,10.71,3.92,2.98,8.75,5.5,14.48,7.53,5.73,2.04,11.42,2.67,17.07,1.88,2.67-.47,5.41-1.33,8.24-2.59,2.83-1.25,5.65-2.98,8.47-5.18,2.83-2.2,5.1-5.1,6.83-8.71,1.72-3.61,2.59-7.53,2.59-11.77,0-3.61-.59-6.94-1.77-10-1.18-3.06-3.06-5.88-5.65-8.47s-5.1-4.83-7.53-6.71c-2.43-1.88-5.69-3.84-9.77-5.88-4.08-2.04-7.3-3.57-9.65-4.59-2.35-1.02-5.65-2.39-9.89-4.12-7.06-2.67-12.56-4.86-16.48-6.59-18.83-7.53-28.25-21.19-28.25-40.96,0-10.83,4.83-19.89,14.48-27.19s21.54-10.95,35.66-10.95c17.73,0,31.78,3.53,42.14,10.59l.94.71-11.3,16.24c-.79-.94-2.04-2.16-3.77-3.65-1.73-1.49-5.3-3.88-10.71-7.18-5.41-3.29-10.95-5.88-16.59-7.77-9.26-2.35-17.62-2.35-25.07,0-7.46,2.35-12.44,6.12-14.95,11.3-3.92,8-3.14,15.85,2.35,23.54,5.49,7.69,12.95,13.58,22.36,17.65l30.6,13.18c11.77,4.55,20.79,10.28,27.07,17.18Z"/>
        <path d="M797.96,360.39h71.09v3.77h-97.92v-155.83h18.36v143.59c0,2.35.82,4.35,2.47,6,1.65,1.65,3.65,2.47,6,2.47Z"/>
        <path d="M897.3,282.71v77.68h83.8v3.77h-102.16v-155.83h99.81v3.77h-81.45v56.96h57.91v3.77h-48.02c-2.83,0-5.18.98-7.06,2.94-1.88,1.96-2.83,4.28-2.83,6.94Z"/>
        <path d="M1053.59,205.03c10.04,0,19.77,1.77,29.19,5.3,9.42,3.53,17.93,8.59,25.54,15.18,7.61,6.59,13.69,15.15,18.24,25.66,4.55,10.52,6.83,22.21,6.83,35.07,0,10.83-1.53,20.71-4.59,29.66-3.06,8.94-7.18,16.52-12.36,22.71-5.18,6.2-11.22,11.46-18.12,15.77-6.91,4.32-14.12,7.46-21.66,9.42-7.53,1.96-15.22,2.94-23.07,2.94s-15.58-1.02-23.19-3.06c-7.61-2.04-14.87-5.22-21.77-9.53-6.91-4.31-12.99-9.61-18.24-15.89-5.26-6.28-9.42-13.97-12.48-23.07-3.06-9.1-4.59-18.99-4.59-29.66,0-23.69,7.45-43.04,22.36-58.02,14.91-14.98,34.21-22.48,57.91-22.48ZM1099.26,346.73c10.36-10.83,15.22-25.89,14.59-45.2-.47-10.83-2.44-21.62-5.88-32.37-3.45-10.75-8.08-20.44-13.89-29.07-5.81-8.63-13.06-15.57-21.77-20.83-8.71-5.26-17.93-7.89-27.66-7.89-15.22,0-27.39,4.87-36.49,14.59-10.83,11.46-15.85,27.15-15.07,47.08.31,10.67,2.24,21.23,5.77,31.66,3.53,10.44,8.2,19.89,14.01,28.37,5.8,8.47,13.06,15.3,21.77,20.48,8.71,5.18,18.01,7.77,27.89,7.77,15.38,0,27.62-4.86,36.72-14.59Z"/>
        <path class="cls-1" d="M1032.68,266.5v42.18h42.18v-42.18h-42.18ZM1066.25,296.23c5.23,5.25,7.64,10.34,8.51,12.38-2.05-.87-7.13-3.29-12.37-8.53-5.26-5.25-7.7-10.35-8.59-12.43,0,0-.02,0-.03.01,0-.01.01-.02.02-.04,0-.01-.01-.02-.02-.04-.87,2.04-3.31,7.19-8.62,12.49-5.24,5.23-10.33,7.65-12.37,8.53.87-2.05,3.28-7.13,8.51-12.38,5.29-5.32,10.44-7.76,12.48-8.64-2.05-.87-7.13-3.29-12.37-8.53-5.31-5.3-7.75-10.45-8.62-12.49,2.04.87,7.19,3.32,12.48,8.64,5.23,5.25,7.64,10.34,8.51,12.38,0,0,.02,0,.03.01.89-2.08,3.31-7.12,8.48-12.32,5.29-5.32,10.44-7.76,12.48-8.64-.87,2.04-3.31,7.19-8.62,12.49-5.18,5.17-10.2,7.59-12.29,8.49,2.09.9,7.17,3.35,12.4,8.6Z"/>
      </g>
    </g>
  </g>
</svg>